<svg width="656" height="709" viewBox="0 0 656 709" fill="none" 
    xmlns="http://www.w3.org/2000/svg">
    <path d="M16 620.042C16 580.939 37.7115 560 76 560C114.582 560 136 580.939 136 620.042C136 655.989 116.196 680 76 680C36.0978 680 16 656.95 16 620.042Z" fill="#14236E"/>
    <path d="M328 0C118.689 0 0 123.304 0 354.5C0 572.716 109.868 709 328 709C547.736 709 656 567.038 656 354.5C656 123.304 538.914 0 328 0ZM328 553.247C230.963 553.247 178.034 486.728 178.034 354.5C178.034 217.405 229.359 155.753 328 155.753C429.046 155.753 477.966 214.971 477.966 354.5C477.966 487.539 427.443 553.247 328 553.247Z" fill="#F60F6B"/>
    <path d="M536 60.0141C536 46.9798 543.237 40 556 40C568.861 40 576 46.9798 576 60.0141C576 71.9965 569.399 80 556 80C542.699 80 536 72.3166 536 60.0141Z" fill="#14236E"/>
</svg>
