<svg width="121" height="43" viewBox="0 0 121 43" fill="none" 
	xmlns="http://www.w3.org/2000/svg">
	<g clip-path="url(#clip0)">
		<path d="M16.21 0C5.86571 0 0 6.09133 0 17.5126C0 28.2926 5.42974 35.0252 16.21 35.0252C27.0694 35.0252 32.4199 28.0121 32.4199 17.5126C32.4199 6.09133 26.6335 0 16.21 0ZM16.21 27.3308C11.4143 27.3308 8.79856 24.0447 8.79856 17.5126C8.79856 10.74 11.3351 7.69431 16.21 7.69431C21.2037 7.69431 23.6214 10.6198 23.6214 17.5126C23.6214 24.0848 21.1245 27.3308 16.21 27.3308Z" fill="white"/>
		<path d="M46.6482 8.53588C39.2764 8.53588 34.0845 13.0242 34.0845 21.8006C34.0845 30.2964 38.8008 35.0652 46.6482 35.0652C54.0199 35.0652 59.0137 30.5769 59.0137 21.8006C59.0137 13.3849 54.4955 8.53588 46.6482 8.53588ZM46.6085 28.0522C43.755 28.0522 41.7337 26.1687 41.7337 21.8006C41.7337 17.4324 43.6361 15.5489 46.6085 15.5489C49.8585 15.5489 51.4438 17.3122 51.4438 21.8006C51.4042 26.0485 49.4621 28.0522 46.6085 28.0522Z" fill="white"/>
		<path d="M60.4009 21.8006C60.4009 30.2964 65.0776 34.5042 73.1231 34.5042H79.1077V27.5312H73.0835C70.0317 27.5312 68.0104 25.7679 68.0104 21.8006C68.0104 17.6729 69.9921 16.11 73.0835 16.11H79.1077V9.09693H73.1231C65.5928 9.09693 60.4009 13.0643 60.4009 21.8006Z" fill="white"/>
		<path d="M97.4184 23.2032C97.4184 26.4893 96.2294 28.0522 93.3362 28.0522C90.1656 28.0522 89.3729 26.4091 89.3729 23.2032V9.09693H81.6841V23.2032C81.6841 29.4548 84.2602 33.4222 89.5711 34.5843V43H97.2599V34.5843C102.174 33.5023 105.147 29.8556 105.147 23.2032V9.09693H97.4581V23.2032H97.4184Z" fill="white"/>
		<path d="M121 16.0699V9.09692H116.046V0.561043H108.357V25.9282C108.357 32.0997 111.607 34.4641 116.799 34.4641H121V27.5312H118.86C117.037 27.5312 116.046 26.7698 116.046 24.6459V16.0699H121Z" fill="white"/>
		<path d="M44.542 4.77528C45.2624 3.01673 44.4365 1.00063 42.6973 0.272196C40.9582 -0.456235 38.9643 0.378842 38.2439 2.13739C37.5235 3.89595 38.3493 5.91204 40.0885 6.64048C41.8277 7.36891 43.8216 6.53383 44.542 4.77528Z" fill="white"/>
		<path d="M52.269 6.84535C54.1272 6.54043 55.3891 4.77013 55.0875 2.89128C54.7859 1.01243 53.0351 -0.263481 51.177 0.0414441C49.3188 0.346369 48.057 2.11667 48.3585 3.99551C48.6601 5.87436 50.4109 7.15028 52.269 6.84535Z" fill="white"/>
	</g>
	<defs>
		<clipPath id="clip0">
			<rect width="121" height="43" fill="white"/>
		</clipPath>
	</defs>
</svg>
