<svg width="117" height="137" viewBox="0 0 117 137" fill="none" 
    xmlns="http://www.w3.org/2000/svg">
    <path opacity="0.1" d="M11 86.938C11 76.846 13.03 68.03 17.09 60.49C21.266 52.95 27.008 47.15 34.316 43.09C41.74 39.03 50.208 37 59.72 37C71.9 37 82.05 40.19 90.17 46.57C98.406 52.95 103.8 61.94 106.352 73.54H74.684C72.016 66.116 66.854 62.404 59.198 62.404C53.746 62.404 49.396 64.55 46.148 68.842C42.9 73.018 41.276 79.05 41.276 86.938C41.276 94.826 42.9 100.916 46.148 105.208C49.396 109.384 53.746 111.472 59.198 111.472C66.854 111.472 72.016 107.76 74.684 100.336H106.352C103.8 111.704 98.406 120.636 90.17 127.132C81.934 133.628 71.784 136.876 59.72 136.876C50.208 136.876 41.74 134.846 34.316 130.786C27.008 126.726 21.266 120.926 17.09 113.386C13.03 105.846 11 97.03 11 86.938Z" fill="#262626"/>
</svg>
