<svg width="117" height="138" viewBox="0 0 117 138" fill="none" 
    xmlns="http://www.w3.org/2000/svg">
    <path opacity="0.1" d="M7 87.0401C7 77.0641 8.856 68.3061 12.568 60.7661C16.396 53.2261 21.558 47.4261 28.054 43.3661C34.55 39.3061 41.8 37.2761 49.804 37.2761C56.648 37.2761 62.622 38.6681 67.726 41.4521C72.946 44.2361 76.948 47.8901 79.732 52.4141V38.6681H109.486V135.76H79.732V122.014C76.832 126.538 72.772 130.192 67.552 132.976C62.448 135.76 56.474 137.152 49.63 137.152C41.742 137.152 34.55 135.122 28.054 131.062C21.558 126.886 16.396 121.028 12.568 113.488C8.856 105.832 7 97.0161 7 87.0401ZM79.732 87.2141C79.732 79.7901 77.644 73.9321 73.468 69.6401C69.408 65.3481 64.42 63.2021 58.504 63.2021C52.588 63.2021 47.542 65.3481 43.366 69.6401C39.306 73.8161 37.276 79.6161 37.276 87.0401C37.276 94.4641 39.306 100.38 43.366 104.788C47.542 109.08 52.588 111.226 58.504 111.226C64.42 111.226 69.408 109.08 73.468 104.788C77.644 100.496 79.732 94.6381 79.732 87.2141Z" fill="#262626"/>
</svg>
