<svg width="117" height="138" viewBox="0 0 117 138" fill="none" 
    xmlns="http://www.w3.org/2000/svg">
    <path opacity="0.1" d="M36.754 52.414C39.538 47.89 43.54 44.236 48.76 41.452C53.98 38.668 59.954 37.276 66.682 37.276C74.686 37.276 81.936 39.306 88.432 43.366C94.928 47.426 100.032 53.226 103.744 60.766C107.572 68.306 109.486 77.064 109.486 87.04C109.486 97.016 107.572 105.832 103.744 113.488C100.032 121.028 94.928 126.886 88.432 131.062C81.936 135.122 74.686 137.152 66.682 137.152C59.838 137.152 53.864 135.818 48.76 133.15C43.656 130.366 39.654 126.712 36.754 122.188V135.76H7V7H36.754V52.414ZM79.21 87.04C79.21 79.616 77.122 73.816 72.946 69.64C68.886 65.348 63.84 63.202 57.808 63.202C51.892 63.202 46.846 65.348 42.67 69.64C38.61 73.932 36.58 79.79 36.58 87.214C36.58 94.638 38.61 100.496 42.67 104.788C46.846 109.08 51.892 111.226 57.808 111.226C63.724 111.226 68.77 109.08 72.946 104.788C77.122 100.38 79.21 94.464 79.21 87.04Z" fill="#262626"/>
</svg>
